<?xml version="1.0" encoding="utf-8"?>
<!-- Generator: Adobe Illustrator 19.2.1, SVG Export Plug-In . SVG Version: 6.00 Build 0)  -->
<svg version="1.1" id="Layer_1" xmlns="http://www.w3.org/2000/svg" xmlns:xlink="http://www.w3.org/1999/xlink" x="0px" y="0px"
	 viewBox="0 0 339 339" enable-background="new 0 0 339 339" xml:space="preserve">
<g>
	<circle cx="169.5" cy="169.5" r="169.5"/>
	<path fill="#FFFFFF" d="M223.2,154.5l70.2-68.8h-29.9l-81.2,82.5V85.7h-0.5H108c-12.9,0-23.5,1.3-31.8,3.8s-14.9,7.8-20.1,15.9
		c-5.2,8.1-7.8,17.2-7.8,27.3c0,11.6,3.4,21.3,10.1,29c6.7,7.8,15.9,12.8,27.5,15.2v0.5c-11.7,3.7-20.5,13.8-26.6,30.3l-16.8,45.6
		h24l15.8-44.7c2.8-7.9,7.5-14.4,14.1-19.4c6.6-5,14.1-7.5,22.6-7.5h40.5v71.6h0.5h21.7h0.5v-58.5l25.5-25l59.4,83.5h29.2
		L223.2,154.5z M110.6,161.7c-13.8,0-23.8-2.2-30-6.5c-6.2-4.3-9.3-11.8-9.3-22.5c0-19,12-28.6,35.9-28.6h52.4v57.6H110.6z"/>
</g>
</svg>
